<svg id="Stroke" xmlns="http://www.w3.org/2000/svg" viewBox="0 0 340 340"><path d="M71.137,190.336c-18.214,19.309-16.567,51.293-16.488,52.645a3.5,3.5,0,0,0,2.942,3.249,3.457,3.457,0,0,0,.554.044,3.506,3.506,0,0,0,3.256-2.218c.093-.236,9.58-23.694,32.61-31.09a21.917,21.917,0,0,1,17.8,1.894,23.006,23.006,0,0,1,9.838,11.209h-6.7a3.5,3.5,0,0,0-3.3,2.325c-.447,1.255-10.89,31.17-6.021,69.677,4.507,35.647,42.335,37.314,49.312,37.314h23.646c6.981,0,44.805-1.669,49.312-37.314,4.868-38.507-5.575-68.422-6.022-69.677a3.5,3.5,0,0,0-3.3-2.325h-7.479A71.653,71.653,0,0,1,212.5,209.02,32.671,32.671,0,0,1,222.992,191.1a19.631,19.631,0,0,1,13.988,12.554c4.721,13.125,16.793,35.571,44.6,38.447.121.012.24.019.359.019a3.508,3.508,0,0,0,1.993-6.378c-.234-.166-5.758-4.184-8.222-15-1.257-5.515-1.315-10.834-1.37-15.978-.062-5.669-.126-11.027-1.738-16.216l0-.01c-6.9-26.764-22.173-40.084-44.27-38.7,5.259-6.018,10.274-10.351,14.96-12.907,21.077-11.5,19.422-31.076,19.341-31.9a3.5,3.5,0,0,0-6.64-1.17c-1.507,3.149-4.44,5.768-8.719,7.781a29.973,29.973,0,0,1-10.558,2.69c-26.056,1.959-41.174,12.272-41.805,12.71l-.068.049-13-31.912a11.247,11.247,0,0,0,3.379-17.99,11.266,11.266,0,0,0-8.147-19.062h-2.286v-30.5a16.024,16.024,0,0,1,30.7-6.419,15.648,15.648,0,0,1-2.729,17.065,35.175,35.175,0,0,1-4.129,3.846,3.5,3.5,0,1,0,4.355,5.48,42.106,42.106,0,0,0,4.955-4.619,22.561,22.561,0,0,0,3.949-24.6A22.8,22.8,0,0,0,190.792,4.615a23.034,23.034,0,0,0-23.008,23.008v30.5H165.5a11.266,11.266,0,0,0-8.148,19.062A11.248,11.248,0,0,0,160.777,95.2l-15.44,39.355a3.5,3.5,0,1,0,6.517,2.557l16.031-40.863h6.831l14.431,35.418a85.506,85.506,0,0,0-24.1,34.852,80.537,80.537,0,0,0-19.714-19.889c-22.165-15.5-51.824-18.409-88.152-8.661a3.5,3.5,0,0,0,.642,6.87,108.466,108.466,0,0,1,32.366,9.011c13.469,6.076,24.477,14.267,32.974,24.449A69.527,69.527,0,0,0,106.4,176.3C91.79,176.3,79.926,181.019,71.137,190.336ZM177.07,89.251H165.5a4.281,4.281,0,1,1,0-8.562H177.07a4.281,4.281,0,0,1,0,8.562Zm0-15.562H165.5a4.281,4.281,0,1,1,0-8.562H177.07a4.281,4.281,0,0,1,0,8.562Zm38.956,159.38a163.277,163.277,0,0,1,4.935,64.124c-4.126,32.632-41.535,31.254-43.122,31.183-.043,0-.087,0-.131,0-.015,0-.028,0-.042,0h-3.3c-9.389-.325-36.514-3.672-39.992-31.179a164.259,164.259,0,0,1,2.185-53.128,3.5,3.5,0,0,0-6.854-1.418,171.3,171.3,0,0,0-2.275,55.424c1.942,15.367,10.078,24.419,19.264,29.746a56.158,56.158,0,0,1-11.287-2.734c-13.418-4.85-21.1-14.234-22.824-27.89a163.284,163.284,0,0,1,4.935-64.124ZM266.1,191.288c1.124,4.063,1.188,8.68,1.241,13.559a80.471,80.471,0,0,0,1.545,17.458A40.279,40.279,0,0,0,273,233.185c-16.56-5.438-25.092-19.836-29.431-31.9a26.6,26.6,0,0,0-13.309-14.971,33.372,33.372,0,0,1,3.48-1.463,32.065,32.065,0,0,1,31.139,5.385C265.393,190.658,265.8,191.014,266.1,191.288Zm-67.168-58.516c.809-.539,14.869-9.7,38.308-11.46a36.921,36.921,0,0,0,13.013-3.336,33.125,33.125,0,0,0,3.5-1.9c-1.981,4.823-5.944,10.423-13.816,14.716-6.955,3.8-14.344,10.747-21.962,20.663-17.168,4.313-29.679,16.279-36.417,34.979a3.5,3.5,0,0,0,6.586,2.373c6.8-18.862,19.565-29.542,37.955-31.742,17.108-2.047,29.35,5.791,36.491,23.325a39.027,39.027,0,0,0-31.179-2.136,39.594,39.594,0,0,0-25.758,29.314,78.478,78.478,0,0,0-1.547,18.5H185.749c-1.273-11.987-5.007-32.881-15.9-51.945A79.363,79.363,0,0,1,198.931,132.772Zm-55.159,67.2c-8.943-23.484-26.557-41.675-50.939-52.608a120.875,120.875,0,0,0-17.39-6.23c26.753-4.422,48.86-.665,65.877,11.232,27.985,19.564,35.419,56.012,37.389,73.7H129.064a29.978,29.978,0,0,0-13.772-17.283A28.855,28.855,0,0,0,91.87,206.3C77.743,210.838,68.235,220.365,62.4,228.37c1.345-10.186,4.859-23.735,13.852-33.253C83.661,187.272,93.806,183.3,106.4,183.3a59.986,59.986,0,0,1,23.714,4.686,86.685,86.685,0,0,1,7.114,14.485,3.5,3.5,0,0,0,6.542-2.491Z" id="id_109" style="fill: rgb(255, 255, 255);"></path><path d="M140.806,214.057l.184.771c.377,1.615,2.391,3.182,4.2,2.613a3.6,3.6,0,0,0,2.612-4.2l-.2-.83a3.5,3.5,0,0,0-6.8,1.65Z" id="id_110" style="fill: rgb(255, 255, 255);"></path></svg>